<?xml version="1.0" standalone="no"?>
<!DOCTYPE svg PUBLIC "-//W3C//DTD SVG 20010904//EN"
 "http://www.w3.org/TR/2001/REC-SVG-20010904/DTD/svg10.dtd">
<svg version="1.0" xmlns="http://www.w3.org/2000/svg"
 width="500.000000pt" height="500.000000pt" viewBox="0 0 500.000000 500.000000"
 preserveAspectRatio="xMidYMid meet">
<metadata>
Created by potrace 1.14, written by Peter Selinger 2001-2017
</metadata>
<g transform="translate(0.000000,500.000000) scale(0.100000,-0.100000)"
fill="#000000" stroke="none">
<path d="M0 2500 l0 -2500 2500 0 2500 0 0 2500 0 2500 -2500 0 -2500 0 0
-2500z m964 505 c189 -40 309 -148 331 -297 l7 -48 -151 0 c-142 0 -151 1
-151 19 0 31 -47 78 -95 97 -54 20 -143 16 -198 -11 -22 -10 -51 -36 -65 -58
-25 -37 -27 -50 -30 -160 -4 -139 9 -188 63 -236 74 -65 225 -63 292 4 18 18
33 42 33 54 0 20 -5 21 -105 21 l-105 0 0 95 0 95 255 0 255 0 0 -265 0 -265
-80 0 c-79 0 -81 1 -90 28 -25 67 -21 65 -70 32 -77 -52 -168 -74 -300 -73
-180 1 -303 53 -379 158 -113 158 -119 473 -11 630 89 129 231 193 435 194 50
0 121 -6 159 -14z m755 -172 c60 -307 74 -367 81 -347 4 10 29 130 56 267 l48
247 153 0 c136 0 152 -2 157 -17 2 -10 28 -129 57 -265 29 -137 54 -246 56
-244 2 2 26 120 53 261 27 142 51 259 53 262 2 2 71 2 153 1 l150 -3 -111
-473 -110 -472 -170 2 -170 3 -60 282 c-33 156 -62 279 -66 275 -4 -4 -33
-132 -65 -285 l-58 -277 -170 2 -170 3 -102 435 c-57 239 -106 452 -109 473
l-7 37 159 0 159 0 33 -167z m1413 -29 l3 -196 163 196 164 196 191 0 190 0
-20 -22 c-128 -145 -313 -361 -313 -367 0 -5 77 -132 170 -282 l171 -274 -178
-3 c-151 -2 -180 0 -189 13 -7 9 -51 85 -99 170 -48 85 -90 155 -95 155 -4 0
-42 -28 -84 -62 l-76 -61 0 -109 0 -108 -155 0 -155 0 0 475 0 475 155 0 155
0 2 -196z m1586 84 l-3 -113 -233 -3 -233 -2 3 -78 3 -77 198 -3 197 -2 0
-110 0 -110 -200 0 -200 0 0 -170 0 -170 -150 0 -150 0 0 475 0 475 385 0 386
0 -3 -112z"/>
</g>
</svg>
